# xmcd
#
# Track frame offsets:
#	150
#	9487
#	21022
#	30412
#	40875
#	50455
#	61932
#	73265
#	84202
#	93632
#	102270
#	111682
#	120837
#	129560
#	138222
#	147335
#	155222
#	164837
#	176320
#	186375
#	197425
#	207065
#	218160
#	227437
#	238845
#	250817
#
# Disc length: 3443 seconds
#
# Revision: 1
# Processed by: cddbd v1.5PL3 Copyright (c) Steve Scherf et al.
# Submitted via: audiograbber 1.82.02
#
DISCID=6c0d711a
DTITLE=Chad Morgan - The Artistry Of Chad Morgan
DYEAR=1991
DGENRE=Country
TTITLE0=The Chase Is On
TTITLE1=You're A Real Good Friend
TTITLE2=The Hut Beside The Trail
TTITLE3=Romeo
TTITLE4=The Man Who Comes Around
TTITLE5=Thinking Tonight
TTITLE6=Buy Buy Buy
TTITLE7=The Moon Is High and So Am I
TTITLE8=Things I See (Through The Bottom Of My Glass)
TTITLE9=The Horrors
TTITLE10=Poor Chinee
TTITLE11=Feeling Single - Seeing Double
TTITLE12=Same Old Boat (Or Third Time Down)
TTITLE13=Better Times-A-Comin'
TTITLE14=Etiquette Blues (Thank You For Your Very Kind Attention)
TTITLE15=Take Warning Friend
TTITLE16=The Rooster Crowed
TTITLE17=Come In Sucker
TTITLE18=You're Getting Old Son
TTITLE19=You Just Can't Win
TTITLE20=Problem Child
TTITLE21=Hard Headed Me
TTITLE22=Ooh! I Want You
TTITLE23=When Fencers Drink Rum
TTITLE24=Black Man Jackie Jackie
TTITLE25=One. Two, Free for Marriage
EXTD=EMI Music Australia
EXTT0=
EXTT1=
EXTT2=
EXTT3=
EXTT4=
EXTT5=
EXTT6=
EXTT7=
EXTT8=
EXTT9=
EXTT10=
EXTT11=
EXTT12=
EXTT13=
EXTT14=
EXTT15=
EXTT16=
EXTT17=
EXTT18=
EXTT19=
EXTT20=
EXTT21=
EXTT22=
EXTT23=
EXTT24=
EXTT25=
PLAYORDER=
